<?xml version="1.0" standalone="no"?>
<svg xmlns="http://www.w3.org/2000/svg" shape-rendering="crispEdges" height="600" width="600" viewBox="0 0 37 37" id="share-qr-code"><path fill="transparent" d="M0,0 h37v37H0z"/><path fill="#000000" d="M0 0h7v1H0zM11 0h2v1H11zM15 0h3v1H15zM20 0h1v1H20zM22 0h1v1H22zM25 0h2v1H25zM30,0 h7v1H30zM0 1h1v1H0zM6 1h1v1H6zM9 1h2v1H9zM13 1h2v1H13zM16 1h2v1H16zM20 1h3v1H20zM26 1h1v1H26zM28 1h1v1H28zM30 1h1v1H30zM36,1 h1v1H36zM0 2h1v1H0zM2 2h3v1H2zM6 2h1v1H6zM12 2h2v1H12zM15 2h1v1H15zM19 2h6v1H19zM26 2h1v1H26zM28 2h1v1H28zM30 2h1v1H30zM32 2h3v1H32zM36,2 h1v1H36zM0 3h1v1H0zM2 3h3v1H2zM6 3h1v1H6zM8 3h1v1H8zM12 3h1v1H12zM16 3h2v1H16zM19 3h1v1H19zM21 3h1v1H21zM25 3h1v1H25zM27 3h2v1H27zM30 3h1v1H30zM32 3h3v1H32zM36,3 h1v1H36zM0 4h1v1H0zM2 4h3v1H2zM6 4h1v1H6zM8 4h2v1H8zM15 4h2v1H15zM18 4h1v1H18zM20 4h4v1H20zM25 4h1v1H25zM30 4h1v1H30zM32 4h3v1H32zM36,4 h1v1H36zM0 5h1v1H0zM6 5h1v1H6zM11 5h2v1H11zM15 5h1v1H15zM17 5h2v1H17zM21 5h1v1H21zM25 5h2v1H25zM28 5h1v1H28zM30 5h1v1H30zM36,5 h1v1H36zM0 6h7v1H0zM8 6h1v1H8zM10 6h1v1H10zM12 6h1v1H12zM14 6h1v1H14zM16 6h1v1H16zM18 6h1v1H18zM20 6h1v1H20zM22 6h1v1H22zM24 6h1v1H24zM26 6h1v1H26zM28 6h1v1H28zM30,6 h7v1H30zM10 7h2v1H10zM14 7h3v1H14zM18 7h3v1H18zM23 7h2v1H23zM27 7h1v1H27zM0 8h2v1H0zM5 8h3v1H5zM9 8h1v1H9zM11 8h1v1H11zM16 8h2v1H16zM21 8h2v1H21zM25 8h4v1H25zM32 8h2v1H32zM1 9h1v1H1zM3 9h2v1H3zM9 9h1v1H9zM12 9h2v1H12zM16 9h1v1H16zM18 9h2v1H18zM21 9h1v1H21zM23 9h1v1H23zM27 9h1v1H27zM31 9h2v1H31zM35 9h1v1H35zM0 10h1v1H0zM4 10h1v1H4zM6 10h2v1H6zM10 10h1v1H10zM13 10h4v1H13zM20 10h1v1H20zM22 10h1v1H22zM26 10h9v1H26zM36,10 h1v1H36zM2 11h1v1H2zM4 11h2v1H4zM7 11h4v1H7zM12 11h2v1H12zM19 11h2v1H19zM22 11h1v1H22zM27 11h1v1H27zM30 11h3v1H30zM35 11h1v1H35zM0 12h1v1H0zM5 12h9v1H5zM15 12h2v1H15zM18 12h1v1H18zM23 12h2v1H23zM27 12h2v1H27zM30 12h2v1H30zM33 12h1v1H33zM35,12 h2v1H35zM1 13h1v1H1zM3 13h1v1H3zM7 13h1v1H7zM10 13h1v1H10zM16 13h1v1H16zM20 13h2v1H20zM23 13h1v1H23zM26 13h3v1H26zM33 13h3v1H33zM1 14h3v1H1zM6 14h1v1H6zM8 14h1v1H8zM10 14h3v1H10zM17 14h2v1H17zM20 14h3v1H20zM24 14h2v1H24zM27 14h2v1H27zM30 14h2v1H30zM34,14 h3v1H34zM1 15h1v1H1zM3 15h1v1H3zM5 15h1v1H5zM7 15h2v1H7zM10 15h2v1H10zM15 15h1v1H15zM19 15h1v1H19zM23 15h1v1H23zM26 15h2v1H26zM29 15h3v1H29zM34 15h1v1H34zM36,15 h1v1H36zM0 16h3v1H0zM4 16h1v1H4zM6 16h1v1H6zM8 16h1v1H8zM11 16h1v1H11zM17 16h3v1H17zM22 16h1v1H22zM24 16h3v1H24zM29 16h2v1H29zM32 16h3v1H32zM36,16 h1v1H36zM2 17h1v1H2zM4 17h1v1H4zM7 17h1v1H7zM9 17h1v1H9zM12 17h3v1H12zM19 17h2v1H19zM23 17h1v1H23zM27 17h2v1H27zM31 17h1v1H31zM33 17h3v1H33zM3 18h1v1H3zM5 18h2v1H5zM8 18h2v1H8zM11 18h1v1H11zM15 18h2v1H15zM18 18h6v1H18zM25 18h1v1H25zM27 18h2v1H27zM36,18 h1v1H36zM0 19h3v1H0zM7 19h1v1H7zM9 19h1v1H9zM12 19h2v1H12zM16 19h1v1H16zM20 19h1v1H20zM22 19h2v1H22zM26 19h1v1H26zM28 19h1v1H28zM31 19h3v1H31zM36,19 h1v1H36zM0 20h1v1H0zM3 20h2v1H3zM6 20h2v1H6zM9 20h2v1H9zM12 20h1v1H12zM14 20h2v1H14zM17 20h3v1H17zM22 20h6v1H22zM29 20h2v1H29zM32,20 h5v1H32zM0 21h2v1H0zM3 21h3v1H3zM7 21h4v1H7zM14 21h2v1H14zM19 21h1v1H19zM23 21h1v1H23zM27 21h1v1H27zM31 21h2v1H31zM35 21h1v1H35zM1 22h1v1H1zM3 22h2v1H3zM6 22h2v1H6zM9 22h1v1H9zM11 22h2v1H11zM15 22h1v1H15zM17 22h1v1H17zM20 22h1v1H20zM24 22h5v1H24zM31 22h2v1H31zM35,22 h2v1H35zM1 23h1v1H1zM4 23h2v1H4zM8 23h1v1H8zM10 23h2v1H10zM14 23h1v1H14zM16 23h1v1H16zM20 23h1v1H20zM23 23h2v1H23zM27 23h4v1H27zM33 23h1v1H33zM36,23 h1v1H36zM4 24h1v1H4zM6 24h1v1H6zM8 24h3v1H8zM13 24h4v1H13zM18 24h3v1H18zM23 24h1v1H23zM28 24h1v1H28zM30 24h2v1H30zM36,24 h1v1H36zM0 25h1v1H0zM2 25h1v1H2zM8 25h1v1H8zM10 25h1v1H10zM12 25h5v1H12zM19 25h3v1H19zM23 25h1v1H23zM25 25h1v1H25zM27 25h1v1H27zM31 25h1v1H31zM35 25h1v1H35zM0 26h1v1H0zM3 26h2v1H3zM6 26h1v1H6zM8 26h3v1H8zM13 26h3v1H13zM18 26h1v1H18zM21 26h1v1H21zM24 26h1v1H24zM27 26h1v1H27zM29 26h1v1H29zM32 26h1v1H32zM34,26 h3v1H34zM0 27h1v1H0zM3 27h3v1H3zM9 27h1v1H9zM12 27h3v1H12zM19 27h2v1H19zM24 27h1v1H24zM27 27h1v1H27zM29 27h3v1H29zM33 27h2v1H33zM36,27 h1v1H36zM0 28h1v1H0zM3 28h1v1H3zM5 28h3v1H5zM10 28h1v1H10zM12 28h1v1H12zM14 28h2v1H14zM17 28h2v1H17zM20 28h1v1H20zM22 28h1v1H22zM25 28h8v1H25zM34 28h1v1H34zM8 29h2v1H8zM15 29h3v1H15zM19 29h3v1H19zM23 29h1v1H23zM26 29h3v1H26zM32 29h1v1H32zM0 30h7v1H0zM8 30h2v1H8zM12 30h4v1H12zM17 30h3v1H17zM23 30h1v1H23zM26 30h1v1H26zM28 30h1v1H28zM30 30h1v1H30zM32 30h1v1H32zM36,30 h1v1H36zM0 31h1v1H0zM6 31h1v1H6zM8 31h4v1H8zM14 31h1v1H14zM16 31h1v1H16zM18 31h1v1H18zM22 31h2v1H22zM26 31h3v1H26zM32 31h2v1H32zM0 32h1v1H0zM2 32h3v1H2zM6 32h1v1H6zM9 32h1v1H9zM11 32h1v1H11zM15 32h3v1H15zM21 32h3v1H21zM25 32h8v1H25zM34 32h1v1H34zM36,32 h1v1H36zM0 33h1v1H0zM2 33h3v1H2zM6 33h1v1H6zM9 33h1v1H9zM12 33h2v1H12zM15 33h2v1H15zM18 33h2v1H18zM21 33h1v1H21zM27 33h4v1H27zM33,33 h4v1H33zM0 34h1v1H0zM2 34h3v1H2zM6 34h1v1H6zM10 34h1v1H10zM13 34h6v1H13zM22 34h1v1H22zM26 34h2v1H26zM35,34 h2v1H35zM0 35h1v1H0zM6 35h1v1H6zM8 35h3v1H8zM12 35h2v1H12zM19 35h2v1H19zM22 35h1v1H22zM24 35h1v1H24zM28 35h1v1H28zM30 35h2v1H30zM33 35h1v1H33zM36,35 h1v1H36zM0 36h7v1H0zM8 36h6v1H8zM18 36h3v1H18zM23 36h2v1H23zM28 36h1v1H28zM32 36h1v1H32zM36,36 h1v1H36z"/></svg>